<svg width="514" height="450" viewBox="0 0 514 450" fill="none" xmlns="http://www.w3.org/2000/svg">
<rect width="5.56826" height="178.184" transform="matrix(-1 0 0 1 42.762 225.515)" fill="#141414"/>
<rect x="-1" y="1" width="346.017" height="92.6605" rx="5" transform="matrix(-1 0 0 1 366.505 130.854)" fill="white" stroke="#141414" stroke-width="2"/>
<rect x="-1" y="1" width="346.017" height="45.3302" rx="5" transform="matrix(-1 0 0 1 366.505 245.004)" fill="white" stroke="#141414" stroke-width="2"/>
<path d="M20.4888 261.708H367.113" stroke="#141414" stroke-width="2"/>
<path d="M20.4888 164.264H367.113" stroke="#141414" stroke-width="2"/>
<path d="M20.4888 275.629H367.113" stroke="#141414" stroke-width="2"/>
<path d="M20.4888 194.889H367.113" stroke="#141414" stroke-width="2"/>
<path d="M425.58 293.726L415.836 283.981L362.937 313.215L382.426 350.801L465.95 310.431L457.598 302.078H433.932L425.58 293.726Z" fill="#141414" stroke="#141414" stroke-width="2"/>
<path d="M461.774 304.862L376.858 343.84" stroke="white" stroke-width="2"/>
<path d="M433.932 302.078L425.58 310.431" stroke="white" stroke-width="2"/>
<path d="M425.58 293.726L415.836 303.47" stroke="white" stroke-width="2"/>
<path d="M348.83 380.059L344.344 367.029L283.984 370.115L285.024 412.44L377.792 412.771L373.946 401.602L352.676 391.228L348.83 380.059Z" fill="#141414" stroke="#141414" stroke-width="2"/>
<path d="M380.024 404.504L286.615 402.312" stroke="white" stroke-width="2"/>
<path d="M349.344 383.388L338.176 387.234" stroke="white" stroke-width="2"/>
<path d="M346.232 377.345L333.202 381.832" stroke="white" stroke-width="2"/>
<path d="M133.246 272.845C104.291 266.163 102.621 231.083 105.405 214.378L109.581 190.713H329.528L350.751 348.017L353.193 366.113L280.805 381.426C259.988 339.141 263.353 315.318 266.885 272.845C234.403 275.629 162.201 279.527 133.246 272.845Z" fill="white"/>
<path d="M350.751 348.017L353.193 366.113L280.805 381.426C259.988 339.141 263.353 315.318 266.885 272.845C234.403 275.629 162.201 279.527 133.246 272.845C104.291 266.163 102.621 231.083 105.405 214.378L109.581 190.713H329.528L350.751 348.017ZM350.751 348.017L283.589 363.329" stroke="#141414" stroke-width="2"/>
<path d="M181.969 75.1717C208.418 79.4036 218.361 87.9181 244.612 144.775L293.334 148.951L230.691 154.519C230.521 175.411 230.556 184.178 230.691 197.674C195.889 218.554 123.444 232.211 102.621 207.418C81.7398 178.184 112.365 64.0352 181.969 75.1717Z" fill="#141414" stroke="#141414" stroke-width="2"/>
<path d="M175.368 13.3091C162.84 10.5248 155.88 20.2692 157.272 31.4059C161.448 35.5821 167.643 47.0548 168 46C178.5 15 195.104 37.165 212.954 34.1899C254.714 27.2296 217.131 -8.96414 203.21 7.74081C196.589 -6.34777 182.329 0.780329 175.368 13.3091Z" fill="#141414"/>
<path d="M212.593 34.8014C213.521 49.6501 207.026 76.5637 186.144 77.9555C165.31 79.3439 157.5 61.9603 157.5 55C147.756 52.2161 134.251 38.6763 143 30.5C156.91 17.5 168.662 44.7754 168 46C167.061 47.738 169.439 23.6649 195.888 23.6649C201.457 23.6649 208.417 26.4494 212.593 34.8014Z" stroke="#141414" stroke-width="2"/>
<path d="M354.585 317.391C317.179 253.231 302.026 222.779 307.254 199.065H230.691L289.158 148.951L329.527 160.088C358.997 170.324 369.897 169.832 415.836 265.885L424.188 282.589L354.585 317.391Z" fill="white"/>
<path d="M415.836 265.885L424.188 282.589L354.585 317.391C317.179 253.231 302.026 222.779 307.254 199.065H230.691L289.158 148.951L329.527 160.088C358.997 170.324 369.897 169.832 415.836 265.885ZM415.836 265.885L354.585 300.686" stroke="#141414" stroke-width="2"/>
<path d="M303.078 130.854L339.272 116.934L329.528 161.48L291.942 174.008L303.078 130.854Z" fill="#141414" stroke="#141414" stroke-width="2"/>
<path d="M291.942 199.065L329.528 161.48L291.942 175.4L232.083 190.713V199.065H291.942Z" fill="#141414" stroke="#141414" stroke-width="2"/>
<path d="M155.519 114.149V162.257L151.343 162.872C175.689 159.251 191.12 157.541 214.364 157.303M226.515 157.303C222.205 157.265 218.179 157.264 214.364 157.303M214.364 157.303C212.594 175.4 210.583 183.297 222.338 204.634" stroke="white" stroke-width="2" stroke-linecap="round"/>
<path d="M207.026 111.365C212.683 119.274 214.686 124.096 215.378 133.638" stroke="#F5F5F5" stroke-width="2"/>
<path d="M272.453 151.735L232.084 154.519V190.713C235.595 191.951 237.44 191.92 240.435 190.713L248.788 180.969L257.14 192.105C263.036 192.277 265.971 191.373 271.061 189.321C275.39 188.75 277.772 188.32 280.805 185.145C283.099 185.745 287.27 184.697 287.766 182.361C288.773 177.625 279.856 158.548 272.453 151.735Z" fill="white"/>
<path d="M280.805 185.145C283.099 185.745 287.27 184.697 287.766 182.361C288.773 177.625 279.856 158.548 272.453 151.735L232.084 154.519V190.713C235.595 191.951 237.44 191.92 240.435 190.713L248.788 180.969L257.14 192.105C263.036 192.277 265.971 191.373 271.061 189.321M280.805 185.145C278.893 175.845 277.612 170.723 272.453 162.872M280.805 185.145C277.772 188.32 275.39 188.75 271.061 189.321M271.061 189.321C268.103 179.444 265.974 174.132 257.14 167.048" stroke="#141414" stroke-width="2"/>
<path d="M201.425 47.3302C201.51 52.9498 201.646 56.115 198.641 61.2509" stroke="#141414" stroke-width="2"/>
<circle cx="2.78413" cy="2.78413" r="2.78413" transform="matrix(-1 0 0 1 190.321 44.5461)" fill="#141414"/>
<path d="M219.554 75.1716L229.299 84.916M230.691 52.8985H240.435M227.907 61.2509H243.219" stroke="#141414" stroke-width="2"/>
<path d="M513.28 256.72C489.615 270.64 470.126 240.015 449.245 260.896" stroke="#141414" stroke-width="2"/>
<path d="M95.6604 81.3194C71.9953 95.2401 52.5064 64.6146 31.6254 85.4956" stroke="#F4C176" stroke-width="2"/>
<path d="M513.28 275.396C489.615 289.317 470.126 258.691 449.245 279.572" stroke="#141414" stroke-width="2"/>
<path d="M95.6604 99.9958C71.9953 113.916 52.5064 83.291 31.6254 104.172" stroke="#F4C176" stroke-width="2"/>
<path d="M387.994 410.659L396.347 395.347M83.1319 412.052L73.3875 386.994M6.56829 409.267L1.00002 398.131M92.8764 409.267V396.739" stroke="#141414" stroke-width="2"/>
<rect width="16.7048" height="16.7048" transform="matrix(-0.87462 0.48481 0.48481 0.87462 449.5 219.946)" fill="#F4C176"/>
<rect width="10.0291" height="10.0291" transform="matrix(-0.777146 0.62932 0.62932 0.777146 319.096 140.302)" fill="white"/>
<path d="M258.532 87.7002L273.845 27.8413L282.197 61.2509L301.686 58.4668V104.405L287.765 83.524L258.532 87.7002Z" stroke="#F4C276" stroke-width="2"/>
<path d="M321.175 40.3699L350.409 11.1365L342.056 32.0175L354.585 34.8017L335.096 68.2112L337.88 45.9382L321.175 40.3699Z" stroke="#F4C276" stroke-width="2"/>
<path d="M109.74 65.6312L98.4852 69.9516L107.854 77.5384L109.74 65.6312Z" fill="#F4C176"/>
</svg>
