<svg width="740" height="187" viewBox="0 0 740 187" fill="none" xmlns="http://www.w3.org/2000/svg">
<rect x="1" y="1" width="738" height="185" rx="7" stroke="#7D8592" stroke-width="2" stroke-dasharray="6 6"/>
<path d="M351.052 79.2281L351.012 79.2673C350.484 78.1118 350.151 76.7998 350.014 75.3506C350.151 76.7802 350.523 78.0727 351.052 79.2281Z" fill="#7D8592"/>
<path d="M363.626 62.328C366.2 62.328 368.287 60.2413 368.287 57.6672C368.287 55.0931 366.2 53.0063 363.626 53.0063C361.052 53.0063 358.965 55.0931 358.965 57.6672C358.965 60.2413 361.052 62.328 363.626 62.328Z" fill="#7D8592"/>
<path d="M377.707 45.917H361.296C354.168 45.917 349.918 50.1666 349.918 57.2949V73.7057C349.918 75.8403 350.29 77.7007 351.015 79.2674C352.699 82.9882 356.302 85.0837 361.296 85.0837H377.707C384.835 85.0837 389.085 80.8341 389.085 73.7057V69.2212V57.2949C389.085 50.1666 384.835 45.917 377.707 45.917ZM385.893 66.4795C384.365 65.1674 381.898 65.1674 380.37 66.4795L372.223 73.4707C370.696 74.7828 368.228 74.7828 366.701 73.4707L366.035 72.9224C364.645 71.7082 362.432 71.5907 360.865 72.6482L353.541 77.5637C353.11 76.467 352.855 75.1941 352.855 73.7057V57.2949C352.855 51.7724 355.773 48.8545 361.296 48.8545H377.707C383.229 48.8545 386.147 51.7724 386.147 57.2949V66.6949L385.893 66.4795Z" fill="#7D8592"/>
<path d="M238.939 113V101.72H242.683C243.931 101.72 244.987 101.939 245.851 102.376C246.715 102.803 247.371 103.437 247.819 104.28C248.267 105.112 248.491 106.136 248.491 107.352C248.491 108.557 248.267 109.581 247.819 110.424C247.371 111.267 246.715 111.907 245.851 112.344C244.987 112.781 243.931 113 242.683 113H238.939ZM240.267 111.864H242.587C244.123 111.864 245.265 111.491 246.011 110.744C246.758 109.987 247.131 108.856 247.131 107.352C247.131 105.837 246.758 104.707 246.011 103.96C245.265 103.213 244.123 102.84 242.587 102.84H240.267V111.864ZM250.716 113V106.904C250.716 106.584 250.706 106.259 250.684 105.928C250.674 105.597 250.652 105.277 250.62 104.968H251.868L252.028 106.92L251.804 106.936C251.911 106.456 252.098 106.061 252.364 105.752C252.631 105.443 252.946 105.213 253.308 105.064C253.671 104.904 254.05 104.824 254.444 104.824C254.604 104.824 254.743 104.829 254.86 104.84C254.988 104.851 255.106 104.877 255.212 104.92L255.196 106.072C255.036 106.019 254.887 105.987 254.748 105.976C254.62 105.955 254.471 105.944 254.3 105.944C253.831 105.944 253.42 106.056 253.068 106.28C252.727 106.504 252.466 106.792 252.284 107.144C252.114 107.496 252.028 107.869 252.028 108.264V113H250.716ZM259.539 113.144C258.824 113.144 258.2 112.979 257.667 112.648C257.133 112.307 256.717 111.827 256.419 111.208C256.131 110.589 255.987 109.848 255.987 108.984C255.987 108.109 256.131 107.363 256.419 106.744C256.717 106.125 257.133 105.651 257.667 105.32C258.2 104.989 258.824 104.824 259.539 104.824C260.264 104.824 260.888 105.011 261.411 105.384C261.944 105.747 262.296 106.243 262.467 106.872H262.275L262.451 104.968H263.699C263.667 105.277 263.635 105.592 263.603 105.912C263.581 106.221 263.571 106.525 263.571 106.824V113H262.275V111.112H262.451C262.28 111.741 261.928 112.237 261.395 112.6C260.861 112.963 260.243 113.144 259.539 113.144ZM259.795 112.088C260.563 112.088 261.171 111.827 261.619 111.304C262.067 110.771 262.291 109.997 262.291 108.984C262.291 107.96 262.067 107.187 261.619 106.664C261.171 106.131 260.563 105.864 259.795 105.864C259.037 105.864 258.429 106.131 257.971 106.664C257.523 107.187 257.299 107.96 257.299 108.984C257.299 109.997 257.523 110.771 257.971 111.304C258.429 111.827 259.037 112.088 259.795 112.088ZM269.613 116.568C268.919 116.568 268.279 116.483 267.693 116.312C267.106 116.141 266.578 115.88 266.109 115.528L266.493 114.552C266.823 114.787 267.149 114.973 267.469 115.112C267.789 115.251 268.119 115.352 268.461 115.416C268.802 115.491 269.165 115.528 269.549 115.528C270.338 115.528 270.935 115.32 271.341 114.904C271.746 114.488 271.949 113.896 271.949 113.128V110.776H272.109C271.938 111.405 271.586 111.907 271.053 112.28C270.519 112.643 269.895 112.824 269.181 112.824C268.445 112.824 267.805 112.664 267.261 112.344C266.727 112.013 266.311 111.549 266.013 110.952C265.725 110.344 265.581 109.629 265.581 108.808C265.581 107.997 265.725 107.293 266.013 106.696C266.311 106.099 266.727 105.64 267.261 105.32C267.805 104.989 268.445 104.824 269.181 104.824C269.906 104.824 270.53 105.005 271.053 105.368C271.586 105.731 271.938 106.232 272.109 106.872L271.949 106.712L272.093 104.968H273.357C273.314 105.277 273.282 105.592 273.26 105.912C273.239 106.221 273.229 106.525 273.229 106.824V112.952C273.229 114.147 272.919 115.048 272.301 115.656C271.693 116.264 270.797 116.568 269.613 116.568ZM269.421 111.768C270.199 111.768 270.813 111.512 271.261 111C271.709 110.477 271.933 109.747 271.933 108.808C271.933 107.869 271.709 107.144 271.261 106.632C270.813 106.12 270.199 105.864 269.421 105.864C268.653 105.864 268.039 106.12 267.581 106.632C267.122 107.144 266.893 107.869 266.893 108.808C266.893 109.747 267.122 110.477 267.581 111C268.039 111.512 268.653 111.768 269.421 111.768ZM282.945 113.144C282.23 113.144 281.606 112.979 281.073 112.648C280.54 112.307 280.124 111.827 279.825 111.208C279.537 110.589 279.393 109.848 279.393 108.984C279.393 108.109 279.537 107.363 279.825 106.744C280.124 106.125 280.54 105.651 281.073 105.32C281.606 104.989 282.23 104.824 282.945 104.824C283.67 104.824 284.294 105.011 284.817 105.384C285.35 105.747 285.702 106.243 285.873 106.872H285.681L285.857 104.968H287.105C287.073 105.277 287.041 105.592 287.009 105.912C286.988 106.221 286.977 106.525 286.977 106.824V113H285.681V111.112H285.857C285.686 111.741 285.334 112.237 284.801 112.6C284.268 112.963 283.649 113.144 282.945 113.144ZM283.201 112.088C283.969 112.088 284.577 111.827 285.025 111.304C285.473 110.771 285.697 109.997 285.697 108.984C285.697 107.96 285.473 107.187 285.025 106.664C284.577 106.131 283.969 105.864 283.201 105.864C282.444 105.864 281.836 106.131 281.377 106.664C280.929 107.187 280.705 107.96 280.705 108.984C280.705 109.997 280.929 110.771 281.377 111.304C281.836 111.827 282.444 112.088 283.201 112.088ZM289.483 113V106.824C289.483 106.525 289.467 106.221 289.435 105.912C289.413 105.592 289.387 105.277 289.355 104.968H290.603L290.763 106.728H290.571C290.805 106.109 291.179 105.64 291.691 105.32C292.213 104.989 292.816 104.824 293.499 104.824C294.448 104.824 295.163 105.08 295.643 105.592C296.133 106.093 296.379 106.888 296.379 107.976V113H295.083V108.056C295.083 107.299 294.928 106.749 294.619 106.408C294.32 106.056 293.851 105.88 293.211 105.88C292.464 105.88 291.872 106.109 291.435 106.568C290.997 107.027 290.779 107.64 290.779 108.408V113H289.483ZM301.898 113.144C301.194 113.144 300.575 112.979 300.042 112.648C299.508 112.307 299.092 111.827 298.794 111.208C298.506 110.589 298.362 109.848 298.362 108.984C298.362 108.109 298.506 107.363 298.794 106.744C299.092 106.125 299.508 105.651 300.042 105.32C300.575 104.989 301.194 104.824 301.898 104.824C302.623 104.824 303.247 105.005 303.77 105.368C304.303 105.731 304.66 106.221 304.842 106.84H304.65V101.224H305.946V113H304.666V111.08H304.842C304.671 111.72 304.319 112.227 303.786 112.6C303.252 112.963 302.623 113.144 301.898 113.144ZM302.17 112.088C302.927 112.088 303.535 111.827 303.994 111.304C304.452 110.771 304.682 109.997 304.682 108.984C304.682 107.96 304.452 107.187 303.994 106.664C303.535 106.131 302.927 105.864 302.17 105.864C301.412 105.864 300.804 106.131 300.346 106.664C299.898 107.187 299.674 107.96 299.674 108.984C299.674 109.997 299.898 110.771 300.346 111.304C300.804 111.827 301.412 112.088 302.17 112.088ZM315.663 113.144C314.959 113.144 314.341 112.979 313.807 112.648C313.274 112.307 312.858 111.827 312.559 111.208C312.271 110.589 312.127 109.848 312.127 108.984C312.127 108.109 312.271 107.363 312.559 106.744C312.858 106.125 313.274 105.651 313.807 105.32C314.341 104.989 314.959 104.824 315.663 104.824C316.389 104.824 317.013 105.005 317.535 105.368C318.069 105.731 318.426 106.221 318.607 106.84H318.415V101.224H319.711V113H318.431V111.08H318.607C318.437 111.72 318.085 112.227 317.551 112.6C317.018 112.963 316.389 113.144 315.663 113.144ZM315.935 112.088C316.693 112.088 317.301 111.827 317.759 111.304C318.218 110.771 318.447 109.997 318.447 108.984C318.447 107.96 318.218 107.187 317.759 106.664C317.301 106.131 316.693 105.864 315.935 105.864C315.178 105.864 314.57 106.131 314.111 106.664C313.663 107.187 313.439 107.96 313.439 108.984C313.439 109.997 313.663 110.771 314.111 111.304C314.57 111.827 315.178 112.088 315.935 112.088ZM322.185 113V106.904C322.185 106.584 322.174 106.259 322.153 105.928C322.142 105.597 322.121 105.277 322.089 104.968H323.337L323.497 106.92L323.273 106.936C323.38 106.456 323.566 106.061 323.833 105.752C324.1 105.443 324.414 105.213 324.777 105.064C325.14 104.904 325.518 104.824 325.913 104.824C326.073 104.824 326.212 104.829 326.329 104.84C326.457 104.851 326.574 104.877 326.681 104.92L326.665 106.072C326.505 106.019 326.356 105.987 326.217 105.976C326.089 105.955 325.94 105.944 325.769 105.944C325.3 105.944 324.889 106.056 324.537 106.28C324.196 106.504 323.934 106.792 323.753 107.144C323.582 107.496 323.497 107.869 323.497 108.264V113H322.185ZM331.232 113.144C330.464 113.144 329.792 112.979 329.216 112.648C328.651 112.307 328.213 111.827 327.904 111.208C327.595 110.579 327.44 109.837 327.44 108.984C327.44 108.12 327.595 107.379 327.904 106.76C328.213 106.141 328.651 105.667 329.216 105.336C329.792 104.995 330.464 104.824 331.232 104.824C332.011 104.824 332.683 104.995 333.248 105.336C333.824 105.667 334.267 106.141 334.576 106.76C334.896 107.379 335.056 108.12 335.056 108.984C335.056 109.837 334.896 110.579 334.576 111.208C334.267 111.827 333.824 112.307 333.248 112.648C332.683 112.979 332.011 113.144 331.232 113.144ZM331.232 112.088C332 112.088 332.608 111.827 333.056 111.304C333.504 110.771 333.728 109.997 333.728 108.984C333.728 107.96 333.499 107.187 333.04 106.664C332.592 106.131 331.989 105.864 331.232 105.864C330.475 105.864 329.872 106.131 329.424 106.664C328.976 107.187 328.752 107.96 328.752 108.984C328.752 109.997 328.976 110.771 329.424 111.304C329.872 111.827 330.475 112.088 331.232 112.088ZM337.077 116.456V106.824C337.077 106.525 337.061 106.221 337.029 105.912C337.007 105.592 336.981 105.277 336.949 104.968H338.197L338.373 106.872H338.181C338.351 106.243 338.698 105.747 339.221 105.384C339.743 105.011 340.367 104.824 341.093 104.824C341.818 104.824 342.442 104.989 342.965 105.32C343.498 105.651 343.914 106.125 344.213 106.744C344.511 107.363 344.661 108.109 344.661 108.984C344.661 109.848 344.511 110.589 344.213 111.208C343.925 111.827 343.514 112.307 342.981 112.648C342.447 112.979 341.818 113.144 341.093 113.144C340.378 113.144 339.759 112.963 339.237 112.6C338.714 112.237 338.367 111.741 338.197 111.112H338.373V116.456H337.077ZM340.837 112.088C341.605 112.088 342.213 111.827 342.661 111.304C343.119 110.771 343.349 109.997 343.349 108.984C343.349 107.96 343.119 107.187 342.661 106.664C342.213 106.131 341.605 105.864 340.837 105.864C340.079 105.864 339.471 106.131 339.013 106.664C338.565 107.187 338.341 107.96 338.341 108.984C338.341 109.997 338.565 110.771 339.013 111.304C339.471 111.827 340.079 112.088 340.837 112.088ZM353.898 113.144C353.183 113.144 352.559 112.979 352.026 112.648C351.493 112.307 351.077 111.827 350.778 111.208C350.49 110.589 350.346 109.848 350.346 108.984C350.346 108.109 350.49 107.363 350.778 106.744C351.077 106.125 351.493 105.651 352.026 105.32C352.559 104.989 353.183 104.824 353.898 104.824C354.623 104.824 355.247 105.011 355.77 105.384C356.303 105.747 356.655 106.243 356.826 106.872H356.634L356.81 104.968H358.058C358.026 105.277 357.994 105.592 357.962 105.912C357.941 106.221 357.93 106.525 357.93 106.824V113H356.634V111.112H356.81C356.639 111.741 356.287 112.237 355.754 112.6C355.221 112.963 354.602 113.144 353.898 113.144ZM354.154 112.088C354.922 112.088 355.53 111.827 355.978 111.304C356.426 110.771 356.65 109.997 356.65 108.984C356.65 107.96 356.426 107.187 355.978 106.664C355.53 106.131 354.922 105.864 354.154 105.864C353.397 105.864 352.789 106.131 352.33 106.664C351.882 107.187 351.658 107.96 351.658 108.984C351.658 109.997 351.882 110.771 352.33 111.304C352.789 111.827 353.397 112.088 354.154 112.088ZM360.436 113V106.824C360.436 106.525 360.42 106.221 360.388 105.912C360.367 105.592 360.34 105.277 360.308 104.968H361.556L361.716 106.728H361.524C361.759 106.109 362.132 105.64 362.644 105.32C363.167 104.989 363.769 104.824 364.452 104.824C365.401 104.824 366.116 105.08 366.596 105.592C367.087 106.093 367.332 106.888 367.332 107.976V113H366.036V108.056C366.036 107.299 365.881 106.749 365.572 106.408C365.273 106.056 364.804 105.88 364.164 105.88C363.417 105.88 362.825 106.109 362.388 106.568C361.951 107.027 361.732 107.64 361.732 108.408V113H360.436ZM373.983 113V104.968H375.279V113H373.983ZM373.823 103.144V101.688H375.423V103.144H373.823ZM377.795 113V106.824C377.795 106.525 377.779 106.221 377.747 105.912C377.726 105.592 377.699 105.277 377.667 104.968H378.915L379.075 106.728H378.883C379.097 106.12 379.433 105.651 379.891 105.32C380.361 104.989 380.926 104.824 381.587 104.824C382.259 104.824 382.803 104.984 383.219 105.304C383.646 105.624 383.934 106.12 384.083 106.792H383.843C384.046 106.184 384.403 105.704 384.915 105.352C385.427 105 386.025 104.824 386.707 104.824C387.593 104.824 388.259 105.08 388.707 105.592C389.155 106.093 389.379 106.888 389.379 107.976V113H388.083V108.056C388.083 107.299 387.95 106.749 387.683 106.408C387.417 106.056 386.99 105.88 386.403 105.88C385.731 105.88 385.198 106.115 384.803 106.584C384.419 107.043 384.227 107.661 384.227 108.44V113H382.931V108.056C382.931 107.299 382.798 106.749 382.531 106.408C382.265 106.056 381.838 105.88 381.251 105.88C380.579 105.88 380.051 106.115 379.667 106.584C379.283 107.043 379.091 107.661 379.091 108.44V113H377.795ZM394.898 113.144C394.183 113.144 393.559 112.979 393.026 112.648C392.493 112.307 392.077 111.827 391.778 111.208C391.49 110.589 391.346 109.848 391.346 108.984C391.346 108.109 391.49 107.363 391.778 106.744C392.077 106.125 392.493 105.651 393.026 105.32C393.559 104.989 394.183 104.824 394.898 104.824C395.623 104.824 396.247 105.011 396.77 105.384C397.303 105.747 397.655 106.243 397.826 106.872H397.634L397.81 104.968H399.058C399.026 105.277 398.994 105.592 398.962 105.912C398.941 106.221 398.93 106.525 398.93 106.824V113H397.634V111.112H397.81C397.639 111.741 397.287 112.237 396.754 112.6C396.221 112.963 395.602 113.144 394.898 113.144ZM395.154 112.088C395.922 112.088 396.53 111.827 396.978 111.304C397.426 110.771 397.65 109.997 397.65 108.984C397.65 107.96 397.426 107.187 396.978 106.664C396.53 106.131 395.922 105.864 395.154 105.864C394.397 105.864 393.789 106.131 393.33 106.664C392.882 107.187 392.658 107.96 392.658 108.984C392.658 109.997 392.882 110.771 393.33 111.304C393.789 111.827 394.397 112.088 395.154 112.088ZM404.972 116.568C404.279 116.568 403.639 116.483 403.052 116.312C402.465 116.141 401.937 115.88 401.468 115.528L401.852 114.552C402.183 114.787 402.508 114.973 402.828 115.112C403.148 115.251 403.479 115.352 403.82 115.416C404.161 115.491 404.524 115.528 404.908 115.528C405.697 115.528 406.295 115.32 406.7 114.904C407.105 114.488 407.308 113.896 407.308 113.128V110.776H407.468C407.297 111.405 406.945 111.907 406.412 112.28C405.879 112.643 405.255 112.824 404.54 112.824C403.804 112.824 403.164 112.664 402.62 112.344C402.087 112.013 401.671 111.549 401.372 110.952C401.084 110.344 400.94 109.629 400.94 108.808C400.94 107.997 401.084 107.293 401.372 106.696C401.671 106.099 402.087 105.64 402.62 105.32C403.164 104.989 403.804 104.824 404.54 104.824C405.265 104.824 405.889 105.005 406.412 105.368C406.945 105.731 407.297 106.232 407.468 106.872L407.308 106.712L407.452 104.968H408.716C408.673 105.277 408.641 105.592 408.62 105.912C408.599 106.221 408.588 106.525 408.588 106.824V112.952C408.588 114.147 408.279 115.048 407.66 115.656C407.052 116.264 406.156 116.568 404.972 116.568ZM404.78 111.768C405.559 111.768 406.172 111.512 406.62 111C407.068 110.477 407.292 109.747 407.292 108.808C407.292 107.869 407.068 107.144 406.62 106.632C406.172 106.12 405.559 105.864 404.78 105.864C404.012 105.864 403.399 106.12 402.94 106.632C402.481 107.144 402.252 107.869 402.252 108.808C402.252 109.747 402.481 110.477 402.94 111C403.399 111.512 404.012 111.768 404.78 111.768ZM414.645 113.144C413.386 113.144 412.394 112.781 411.669 112.056C410.943 111.32 410.581 110.301 410.581 109C410.581 108.157 410.741 107.427 411.061 106.808C411.381 106.179 411.829 105.693 412.405 105.352C412.981 105 413.642 104.824 414.389 104.824C415.125 104.824 415.743 104.979 416.245 105.288C416.746 105.597 417.13 106.04 417.397 106.616C417.663 107.181 417.797 107.853 417.797 108.632V109.112H411.573V108.296H416.949L416.677 108.504C416.677 107.651 416.485 106.984 416.101 106.504C415.717 106.024 415.146 105.784 414.389 105.784C413.589 105.784 412.965 106.067 412.517 106.632C412.069 107.187 411.845 107.939 411.845 108.888V109.032C411.845 110.035 412.09 110.797 412.581 111.32C413.082 111.832 413.781 112.088 414.677 112.088C415.157 112.088 415.605 112.019 416.021 111.88C416.447 111.731 416.853 111.491 417.237 111.16L417.685 112.072C417.333 112.413 416.885 112.68 416.341 112.872C415.807 113.053 415.242 113.144 414.645 113.144ZM420.196 114.824L419.588 114.36C419.876 114.061 420.062 113.779 420.148 113.512C420.244 113.256 420.292 112.995 420.292 112.728L420.58 113H419.524V111.368H421.156V112.52C421.156 112.947 421.086 113.347 420.948 113.72C420.809 114.104 420.558 114.472 420.196 114.824ZM430.888 113.144C430.12 113.144 429.448 112.979 428.872 112.648C428.307 112.307 427.869 111.827 427.56 111.208C427.251 110.579 427.096 109.837 427.096 108.984C427.096 108.12 427.251 107.379 427.56 106.76C427.869 106.141 428.307 105.667 428.872 105.336C429.448 104.995 430.12 104.824 430.888 104.824C431.667 104.824 432.339 104.995 432.904 105.336C433.48 105.667 433.923 106.141 434.232 106.76C434.552 107.379 434.712 108.12 434.712 108.984C434.712 109.837 434.552 110.579 434.232 111.208C433.923 111.827 433.48 112.307 432.904 112.648C432.339 112.979 431.667 113.144 430.888 113.144ZM430.888 112.088C431.656 112.088 432.264 111.827 432.712 111.304C433.16 110.771 433.384 109.997 433.384 108.984C433.384 107.96 433.155 107.187 432.696 106.664C432.248 106.131 431.645 105.864 430.888 105.864C430.131 105.864 429.528 106.131 429.08 106.664C428.632 107.187 428.408 107.96 428.408 108.984C428.408 109.997 428.632 110.771 429.08 111.304C429.528 111.827 430.131 112.088 430.888 112.088ZM436.701 113V106.904C436.701 106.584 436.69 106.259 436.669 105.928C436.658 105.597 436.637 105.277 436.605 104.968H437.853L438.013 106.92L437.789 106.936C437.895 106.456 438.082 106.061 438.349 105.752C438.615 105.443 438.93 105.213 439.293 105.064C439.655 104.904 440.034 104.824 440.429 104.824C440.589 104.824 440.727 104.829 440.845 104.84C440.973 104.851 441.09 104.877 441.197 104.92L441.181 106.072C441.021 106.019 440.871 105.987 440.733 105.976C440.605 105.955 440.455 105.944 440.285 105.944C439.815 105.944 439.405 106.056 439.053 106.28C438.711 106.504 438.45 106.792 438.269 107.144C438.098 107.496 438.013 107.869 438.013 108.264V113H436.701ZM446.861 113V101.72H451.373C452.568 101.72 453.49 101.976 454.141 102.488C454.792 103 455.117 103.725 455.117 104.664C455.117 105.368 454.904 105.955 454.477 106.424C454.061 106.893 453.48 107.203 452.733 107.352V107.128C453.565 107.224 454.216 107.512 454.685 107.992C455.165 108.461 455.405 109.096 455.405 109.896C455.405 110.899 455.069 111.667 454.397 112.2C453.736 112.733 452.797 113 451.581 113H446.861ZM448.157 111.928H451.453C452.264 111.928 452.904 111.773 453.373 111.464C453.853 111.144 454.093 110.616 454.093 109.88C454.093 109.133 453.853 108.605 453.373 108.296C452.904 107.976 452.264 107.816 451.453 107.816H448.157V111.928ZM448.157 106.76H451.181C452.056 106.76 452.712 106.589 453.149 106.248C453.586 105.907 453.805 105.416 453.805 104.776C453.805 104.115 453.586 103.619 453.149 103.288C452.712 102.947 452.056 102.776 451.181 102.776H448.157V106.76ZM457.56 113V106.904C457.56 106.584 457.549 106.259 457.528 105.928C457.517 105.597 457.496 105.277 457.464 104.968H458.712L458.872 106.92L458.648 106.936C458.755 106.456 458.941 106.061 459.208 105.752C459.475 105.443 459.789 105.213 460.152 105.064C460.515 104.904 460.893 104.824 461.288 104.824C461.448 104.824 461.587 104.829 461.704 104.84C461.832 104.851 461.949 104.877 462.056 104.92L462.04 106.072C461.88 106.019 461.731 105.987 461.592 105.976C461.464 105.955 461.315 105.944 461.144 105.944C460.675 105.944 460.264 106.056 459.912 106.28C459.571 106.504 459.309 106.792 459.128 107.144C458.957 107.496 458.872 107.869 458.872 108.264V113H457.56ZM466.607 113.144C465.839 113.144 465.167 112.979 464.591 112.648C464.026 112.307 463.588 111.827 463.279 111.208C462.97 110.579 462.815 109.837 462.815 108.984C462.815 108.12 462.97 107.379 463.279 106.76C463.588 106.141 464.026 105.667 464.591 105.336C465.167 104.995 465.839 104.824 466.607 104.824C467.386 104.824 468.058 104.995 468.623 105.336C469.199 105.667 469.642 106.141 469.951 106.76C470.271 107.379 470.431 108.12 470.431 108.984C470.431 109.837 470.271 110.579 469.951 111.208C469.642 111.827 469.199 112.307 468.623 112.648C468.058 112.979 467.386 113.144 466.607 113.144ZM466.607 112.088C467.375 112.088 467.983 111.827 468.431 111.304C468.879 110.771 469.103 109.997 469.103 108.984C469.103 107.96 468.874 107.187 468.415 106.664C467.967 106.131 467.364 105.864 466.607 105.864C465.85 105.864 465.247 106.131 464.799 106.664C464.351 107.187 464.127 107.96 464.127 108.984C464.127 109.997 464.351 110.771 464.799 111.304C465.247 111.827 465.85 112.088 466.607 112.088ZM474.486 113L471.51 104.968H472.886L475.366 112.04H474.95L477.51 104.968H478.63L481.142 112.04H480.742L483.238 104.968H484.55L481.558 113H480.31L477.718 105.816H478.358L475.75 113H474.486ZM488.764 113.144C488.124 113.144 487.527 113.059 486.972 112.888C486.417 112.707 485.959 112.456 485.596 112.136L486.044 111.224C486.439 111.533 486.865 111.763 487.324 111.912C487.793 112.061 488.279 112.136 488.78 112.136C489.42 112.136 489.9 112.024 490.22 111.8C490.551 111.565 490.716 111.245 490.716 110.84C490.716 110.531 490.609 110.285 490.396 110.104C490.193 109.912 489.857 109.763 489.388 109.656L487.9 109.352C487.217 109.203 486.705 108.952 486.364 108.6C486.023 108.237 485.852 107.779 485.852 107.224C485.852 106.755 485.975 106.344 486.22 105.992C486.465 105.629 486.823 105.347 487.292 105.144C487.761 104.931 488.311 104.824 488.94 104.824C489.527 104.824 490.065 104.915 490.556 105.096C491.057 105.267 491.473 105.517 491.804 105.848L491.34 106.744C491.02 106.435 490.652 106.205 490.236 106.056C489.831 105.896 489.409 105.816 488.972 105.816C488.343 105.816 487.868 105.944 487.548 106.2C487.239 106.445 487.084 106.771 487.084 107.176C487.084 107.485 487.18 107.741 487.372 107.944C487.575 108.136 487.884 108.28 488.3 108.376L489.788 108.68C490.513 108.84 491.052 109.091 491.404 109.432C491.767 109.763 491.948 110.211 491.948 110.776C491.948 111.256 491.815 111.677 491.548 112.04C491.281 112.392 490.908 112.664 490.428 112.856C489.959 113.048 489.404 113.144 488.764 113.144ZM497.598 113.144C496.339 113.144 495.347 112.781 494.622 112.056C493.896 111.32 493.534 110.301 493.534 109C493.534 108.157 493.694 107.427 494.014 106.808C494.334 106.179 494.782 105.693 495.358 105.352C495.934 105 496.595 104.824 497.342 104.824C498.078 104.824 498.696 104.979 499.198 105.288C499.699 105.597 500.083 106.04 500.35 106.616C500.616 107.181 500.75 107.853 500.75 108.632V109.112H494.526V108.296H499.902L499.63 108.504C499.63 107.651 499.438 106.984 499.054 106.504C498.67 106.024 498.099 105.784 497.342 105.784C496.542 105.784 495.918 106.067 495.47 106.632C495.022 107.187 494.798 107.939 494.798 108.888V109.032C494.798 110.035 495.043 110.797 495.534 111.32C496.035 111.832 496.734 112.088 497.63 112.088C498.11 112.088 498.558 112.019 498.974 111.88C499.4 111.731 499.806 111.491 500.19 111.16L500.638 112.072C500.286 112.413 499.838 112.68 499.294 112.872C498.76 113.053 498.195 113.144 497.598 113.144Z" fill="#9AA0A6"/>
<path d="M97.424 141V129.72H98.576L103.104 139.944H102.64L107.168 129.72H108.32V141H107.104V131.432H107.584L103.312 141H102.432L98.144 131.432H98.624V141H97.424ZM110.998 141V132.968H112.294V141H110.998ZM110.838 131.144V129.688H112.438V131.144H110.838ZM114.811 141V134.824C114.811 134.525 114.795 134.221 114.763 133.912C114.742 133.592 114.715 133.277 114.683 132.968H115.931L116.091 134.728H115.899C116.134 134.109 116.507 133.64 117.019 133.32C117.542 132.989 118.144 132.824 118.827 132.824C119.776 132.824 120.491 133.08 120.971 133.592C121.462 134.093 121.707 134.888 121.707 135.976V141H120.411V136.056C120.411 135.299 120.256 134.749 119.947 134.408C119.648 134.056 119.179 133.88 118.539 133.88C117.792 133.88 117.2 134.109 116.763 134.568C116.326 135.027 116.107 135.64 116.107 136.408V141H114.811ZM124.186 141V132.968H125.482V141H124.186ZM124.026 131.144V129.688H125.626V131.144H124.026ZM127.998 141V134.824C127.998 134.525 127.982 134.221 127.95 133.912C127.929 133.592 127.902 133.277 127.87 132.968H129.118L129.278 134.728H129.086C129.3 134.12 129.636 133.651 130.094 133.32C130.564 132.989 131.129 132.824 131.79 132.824C132.462 132.824 133.006 132.984 133.422 133.304C133.849 133.624 134.137 134.12 134.286 134.792H134.046C134.249 134.184 134.606 133.704 135.118 133.352C135.63 133 136.228 132.824 136.91 132.824C137.796 132.824 138.462 133.08 138.91 133.592C139.358 134.093 139.582 134.888 139.582 135.976V141H138.286V136.056C138.286 135.299 138.153 134.749 137.886 134.408C137.62 134.056 137.193 133.88 136.606 133.88C135.934 133.88 135.401 134.115 135.006 134.584C134.622 135.043 134.43 135.661 134.43 136.44V141H133.134V136.056C133.134 135.299 133.001 134.749 132.734 134.408C132.468 134.056 132.041 133.88 131.454 133.88C130.782 133.88 130.254 134.115 129.87 134.584C129.486 135.043 129.294 135.661 129.294 136.44V141H127.998ZM144.877 141.144C143.928 141.144 143.208 140.883 142.717 140.36C142.237 139.837 141.997 139.037 141.997 137.96V132.968H143.293V137.928C143.293 138.664 143.443 139.208 143.741 139.56C144.04 139.901 144.504 140.072 145.133 140.072C145.837 140.072 146.403 139.843 146.829 139.384C147.256 138.925 147.469 138.312 147.469 137.544V132.968H148.765V141H147.501V139.192H147.709C147.485 139.811 147.123 140.291 146.621 140.632C146.131 140.973 145.549 141.144 144.877 141.144ZM151.28 141V134.824C151.28 134.525 151.264 134.221 151.232 133.912C151.21 133.592 151.184 133.277 151.152 132.968H152.4L152.56 134.728H152.368C152.581 134.12 152.917 133.651 153.376 133.32C153.845 132.989 154.41 132.824 155.072 132.824C155.744 132.824 156.288 132.984 156.704 133.304C157.13 133.624 157.418 134.12 157.568 134.792H157.328C157.53 134.184 157.888 133.704 158.4 133.352C158.912 133 159.509 132.824 160.192 132.824C161.077 132.824 161.744 133.08 162.192 133.592C162.64 134.093 162.864 134.888 162.864 135.976V141H161.568V136.056C161.568 135.299 161.434 134.749 161.168 134.408C160.901 134.056 160.474 133.88 159.888 133.88C159.216 133.88 158.682 134.115 158.288 134.584C157.904 135.043 157.712 135.661 157.712 136.44V141H156.416V136.056C156.416 135.299 156.282 134.749 156.016 134.408C155.749 134.056 155.322 133.88 154.736 133.88C154.064 133.88 153.536 134.115 153.152 134.584C152.768 135.043 152.576 135.661 152.576 136.44V141H151.28ZM170.266 141V139.864H172.922V130.856H173.626L170.522 132.792V131.464L173.29 129.72H174.25V139.864H176.746V141H170.266ZM182.996 141.144C181.631 141.144 180.575 140.664 179.828 139.704C179.092 138.733 178.724 137.379 178.724 135.64C178.724 134.339 178.911 133.24 179.284 132.344C179.657 131.437 180.191 130.749 180.884 130.28C181.577 129.811 182.415 129.576 183.396 129.576C183.983 129.576 184.575 129.699 185.172 129.944C185.769 130.179 186.26 130.509 186.644 130.936L186.164 131.96C185.759 131.544 185.316 131.24 184.836 131.048C184.356 130.845 183.871 130.744 183.38 130.744C182.292 130.744 181.455 131.133 180.868 131.912C180.292 132.68 180.004 133.837 180.004 135.384V136.872H179.86C179.935 136.264 180.116 135.741 180.404 135.304C180.703 134.856 181.092 134.515 181.572 134.28C182.052 134.045 182.585 133.928 183.172 133.928C183.855 133.928 184.457 134.077 184.98 134.376C185.503 134.675 185.913 135.096 186.212 135.64C186.511 136.173 186.66 136.787 186.66 137.48C186.66 138.184 186.505 138.813 186.196 139.368C185.887 139.923 185.455 140.36 184.9 140.68C184.345 140.989 183.711 141.144 182.996 141.144ZM182.9 140.024C183.391 140.024 183.823 139.923 184.196 139.72C184.58 139.507 184.873 139.213 185.076 138.84C185.289 138.456 185.396 138.019 185.396 137.528C185.396 137.037 185.289 136.605 185.076 136.232C184.873 135.859 184.58 135.565 184.196 135.352C183.823 135.139 183.391 135.032 182.9 135.032C182.409 135.032 181.977 135.139 181.604 135.352C181.231 135.565 180.937 135.859 180.724 136.232C180.521 136.605 180.42 137.037 180.42 137.528C180.42 138.019 180.521 138.456 180.724 138.84C180.937 139.213 181.231 139.507 181.604 139.72C181.977 139.923 182.409 140.024 182.9 140.024ZM192.222 141.144C190.942 141.144 189.961 140.648 189.278 139.656C188.595 138.664 188.254 137.229 188.254 135.352C188.254 133.464 188.595 132.029 189.278 131.048C189.961 130.067 190.942 129.576 192.222 129.576C193.513 129.576 194.494 130.067 195.166 131.048C195.849 132.029 196.19 133.459 196.19 135.336C196.19 137.224 195.849 138.664 195.166 139.656C194.483 140.648 193.502 141.144 192.222 141.144ZM192.222 139.992C193.118 139.992 193.785 139.613 194.222 138.856C194.659 138.099 194.878 136.925 194.878 135.336C194.878 133.736 194.659 132.568 194.222 131.832C193.785 131.085 193.118 130.712 192.222 130.712C191.337 130.712 190.67 131.085 190.222 131.832C189.785 132.579 189.566 133.747 189.566 135.336C189.566 136.925 189.785 138.099 190.222 138.856C190.67 139.613 191.337 139.992 192.222 139.992ZM201.816 141.144C200.536 141.144 199.554 140.648 198.872 139.656C198.189 138.664 197.848 137.229 197.848 135.352C197.848 133.464 198.189 132.029 198.872 131.048C199.554 130.067 200.536 129.576 201.816 129.576C203.106 129.576 204.088 130.067 204.76 131.048C205.442 132.029 205.784 133.459 205.784 135.336C205.784 137.224 205.442 138.664 204.76 139.656C204.077 140.648 203.096 141.144 201.816 141.144ZM201.816 139.992C202.712 139.992 203.378 139.613 203.816 138.856C204.253 138.099 204.472 136.925 204.472 135.336C204.472 133.736 204.253 132.568 203.816 131.832C203.378 131.085 202.712 130.712 201.816 130.712C200.93 130.712 200.264 131.085 199.816 131.832C199.378 132.579 199.16 133.747 199.16 135.336C199.16 136.925 199.378 138.099 199.816 138.856C200.264 139.613 200.93 139.992 201.816 139.992ZM207.873 144.456V134.824C207.873 134.525 207.857 134.221 207.825 133.912C207.804 133.592 207.777 133.277 207.745 132.968H208.993L209.169 134.872H208.977C209.148 134.243 209.495 133.747 210.017 133.384C210.54 133.011 211.164 132.824 211.889 132.824C212.615 132.824 213.239 132.989 213.761 133.32C214.295 133.651 214.711 134.125 215.009 134.744C215.308 135.363 215.457 136.109 215.457 136.984C215.457 137.848 215.308 138.589 215.009 139.208C214.721 139.827 214.311 140.307 213.777 140.648C213.244 140.979 212.615 141.144 211.889 141.144C211.175 141.144 210.556 140.963 210.033 140.6C209.511 140.237 209.164 139.741 208.993 139.112H209.169V144.456H207.873ZM211.633 140.088C212.401 140.088 213.009 139.827 213.457 139.304C213.916 138.771 214.145 137.997 214.145 136.984C214.145 135.96 213.916 135.187 213.457 134.664C213.009 134.131 212.401 133.864 211.633 133.864C210.876 133.864 210.268 134.131 209.809 134.664C209.361 135.187 209.137 135.96 209.137 136.984C209.137 137.997 209.361 138.771 209.809 139.304C210.268 139.827 210.876 140.088 211.633 140.088ZM216.207 141L219.807 136.536V137.176L216.399 132.968H217.967L220.543 136.248H220.079L222.639 132.968H224.191L220.831 137.16V136.568L224.399 141H222.815L220.063 137.496H220.543L217.759 141H216.207ZM232.174 141L229.198 132.968H230.574L233.054 140.04H232.638L235.198 132.968H236.318L238.83 140.04H238.43L240.926 132.968H242.238L239.246 141H237.998L235.406 133.816H236.046L233.438 141H232.174ZM243.936 141V132.968H245.232V141H243.936ZM243.776 131.144V129.688H245.376V131.144H243.776ZM250.788 141.144C250.084 141.144 249.466 140.979 248.932 140.648C248.399 140.307 247.983 139.827 247.684 139.208C247.396 138.589 247.252 137.848 247.252 136.984C247.252 136.109 247.396 135.363 247.684 134.744C247.983 134.125 248.399 133.651 248.932 133.32C249.466 132.989 250.084 132.824 250.788 132.824C251.514 132.824 252.138 133.005 252.66 133.368C253.194 133.731 253.551 134.221 253.732 134.84H253.54V129.224H254.836V141H253.556V139.08H253.732C253.562 139.72 253.21 140.227 252.676 140.6C252.143 140.963 251.514 141.144 250.788 141.144ZM251.06 140.088C251.818 140.088 252.426 139.827 252.884 139.304C253.343 138.771 253.572 137.997 253.572 136.984C253.572 135.96 253.343 135.187 252.884 134.664C252.426 134.131 251.818 133.864 251.06 133.864C250.303 133.864 249.695 134.131 249.236 134.664C248.788 135.187 248.564 135.96 248.564 136.984C248.564 137.997 248.788 138.771 249.236 139.304C249.695 139.827 250.303 140.088 251.06 140.088ZM260.19 141.144C259.401 141.144 258.798 140.92 258.382 140.472C257.966 140.013 257.758 139.325 257.758 138.408V133.976H256.19V132.968H257.758V130.776L259.054 130.408V132.968H261.358V133.976H259.054V138.264C259.054 138.904 259.161 139.363 259.374 139.64C259.598 139.907 259.929 140.04 260.366 140.04C260.569 140.04 260.75 140.024 260.91 139.992C261.07 139.949 261.214 139.901 261.342 139.848V140.936C261.193 141 261.011 141.048 260.798 141.08C260.595 141.123 260.393 141.144 260.19 141.144ZM262.936 141V129.224H264.232V134.744H264.024C264.248 134.115 264.621 133.64 265.144 133.32C265.677 132.989 266.291 132.824 266.984 132.824C267.944 132.824 268.659 133.085 269.128 133.608C269.597 134.12 269.832 134.899 269.832 135.944V141H268.536V136.024C268.536 135.277 268.387 134.733 268.088 134.392C267.8 134.051 267.331 133.88 266.68 133.88C265.933 133.88 265.336 134.109 264.888 134.568C264.451 135.027 264.232 135.629 264.232 136.376V141H262.936ZM276.451 141V134.904C276.451 134.584 276.44 134.259 276.419 133.928C276.408 133.597 276.387 133.277 276.355 132.968H277.603L277.763 134.92L277.539 134.936C277.645 134.456 277.832 134.061 278.099 133.752C278.365 133.443 278.68 133.213 279.043 133.064C279.405 132.904 279.784 132.824 280.179 132.824C280.339 132.824 280.477 132.829 280.595 132.84C280.723 132.851 280.84 132.877 280.947 132.92L280.931 134.072C280.771 134.019 280.621 133.987 280.483 133.976C280.355 133.955 280.205 133.944 280.035 133.944C279.565 133.944 279.155 134.056 278.803 134.28C278.461 134.504 278.2 134.792 278.019 135.144C277.848 135.496 277.763 135.869 277.763 136.264V141H276.451ZM285.77 141.144C284.511 141.144 283.519 140.781 282.794 140.056C282.068 139.32 281.706 138.301 281.706 137C281.706 136.157 281.866 135.427 282.186 134.808C282.506 134.179 282.954 133.693 283.53 133.352C284.106 133 284.767 132.824 285.514 132.824C286.25 132.824 286.868 132.979 287.37 133.288C287.871 133.597 288.255 134.04 288.522 134.616C288.788 135.181 288.922 135.853 288.922 136.632V137.112H282.698V136.296H288.074L287.802 136.504C287.802 135.651 287.61 134.984 287.226 134.504C286.842 134.024 286.271 133.784 285.514 133.784C284.714 133.784 284.09 134.067 283.642 134.632C283.194 135.187 282.97 135.939 282.97 136.888V137.032C282.97 138.035 283.215 138.797 283.706 139.32C284.207 139.832 284.906 140.088 285.802 140.088C286.282 140.088 286.73 140.019 287.146 139.88C287.572 139.731 287.978 139.491 288.362 139.16L288.81 140.072C288.458 140.413 288.01 140.68 287.466 140.872C286.932 141.053 286.367 141.144 285.77 141.144ZM294.281 141.144C293.491 141.144 292.803 140.973 292.217 140.632C291.641 140.291 291.193 139.805 290.873 139.176C290.563 138.547 290.409 137.8 290.409 136.936C290.409 136.061 290.569 135.32 290.889 134.712C291.209 134.093 291.657 133.624 292.233 133.304C292.819 132.984 293.502 132.824 294.281 132.824C294.793 132.824 295.289 132.915 295.769 133.096C296.259 133.277 296.665 133.533 296.985 133.864L296.521 134.792C296.201 134.483 295.849 134.253 295.465 134.104C295.091 133.955 294.723 133.88 294.361 133.88C293.529 133.88 292.883 134.141 292.425 134.664C291.966 135.187 291.737 135.949 291.737 136.952C291.737 137.944 291.966 138.712 292.425 139.256C292.883 139.8 293.529 140.072 294.361 140.072C294.713 140.072 295.075 140.003 295.449 139.864C295.833 139.725 296.19 139.496 296.521 139.176L296.985 140.088C296.654 140.429 296.243 140.691 295.753 140.872C295.262 141.053 294.771 141.144 294.281 141.144ZM301.966 141.144C301.198 141.144 300.526 140.979 299.95 140.648C299.385 140.307 298.948 139.827 298.638 139.208C298.329 138.579 298.174 137.837 298.174 136.984C298.174 136.12 298.329 135.379 298.638 134.76C298.948 134.141 299.385 133.667 299.95 133.336C300.526 132.995 301.198 132.824 301.966 132.824C302.745 132.824 303.417 132.995 303.982 133.336C304.558 133.667 305.001 134.141 305.31 134.76C305.63 135.379 305.79 136.12 305.79 136.984C305.79 137.837 305.63 138.579 305.31 139.208C305.001 139.827 304.558 140.307 303.982 140.648C303.417 140.979 302.745 141.144 301.966 141.144ZM301.966 140.088C302.734 140.088 303.342 139.827 303.79 139.304C304.238 138.771 304.462 137.997 304.462 136.984C304.462 135.96 304.233 135.187 303.774 134.664C303.326 134.131 302.724 133.864 301.966 133.864C301.209 133.864 300.606 134.131 300.158 134.664C299.71 135.187 299.486 135.96 299.486 136.984C299.486 137.997 299.71 138.771 300.158 139.304C300.606 139.827 301.209 140.088 301.966 140.088ZM307.811 141V134.824C307.811 134.525 307.795 134.221 307.763 133.912C307.742 133.592 307.715 133.277 307.683 132.968H308.931L309.091 134.728H308.899C309.112 134.12 309.448 133.651 309.907 133.32C310.376 132.989 310.942 132.824 311.603 132.824C312.275 132.824 312.819 132.984 313.235 133.304C313.662 133.624 313.95 134.12 314.099 134.792H313.859C314.062 134.184 314.419 133.704 314.931 133.352C315.443 133 316.04 132.824 316.723 132.824C317.608 132.824 318.275 133.08 318.723 133.592C319.171 134.093 319.395 134.888 319.395 135.976V141H318.099V136.056C318.099 135.299 317.966 134.749 317.699 134.408C317.432 134.056 317.006 133.88 316.419 133.88C315.747 133.88 315.214 134.115 314.819 134.584C314.435 135.043 314.243 135.661 314.243 136.44V141H312.947V136.056C312.947 135.299 312.814 134.749 312.547 134.408C312.28 134.056 311.854 133.88 311.267 133.88C310.595 133.88 310.067 134.115 309.683 134.584C309.299 135.043 309.107 135.661 309.107 136.44V141H307.811ZM321.858 141V134.824C321.858 134.525 321.842 134.221 321.81 133.912C321.788 133.592 321.762 133.277 321.73 132.968H322.978L323.138 134.728H322.946C323.159 134.12 323.495 133.651 323.954 133.32C324.423 132.989 324.988 132.824 325.65 132.824C326.322 132.824 326.866 132.984 327.282 133.304C327.708 133.624 327.996 134.12 328.146 134.792H327.906C328.108 134.184 328.466 133.704 328.978 133.352C329.49 133 330.087 132.824 330.77 132.824C331.655 132.824 332.322 133.08 332.77 133.592C333.218 134.093 333.442 134.888 333.442 135.976V141H332.146V136.056C332.146 135.299 332.012 134.749 331.746 134.408C331.479 134.056 331.052 133.88 330.466 133.88C329.794 133.88 329.26 134.115 328.866 134.584C328.482 135.043 328.29 135.661 328.29 136.44V141H326.994V136.056C326.994 135.299 326.86 134.749 326.594 134.408C326.327 134.056 325.9 133.88 325.314 133.88C324.642 133.88 324.114 134.115 323.73 134.584C323.346 135.043 323.154 135.661 323.154 136.44V141H321.858ZM339.473 141.144C338.214 141.144 337.222 140.781 336.497 140.056C335.771 139.32 335.409 138.301 335.409 137C335.409 136.157 335.569 135.427 335.889 134.808C336.209 134.179 336.657 133.693 337.233 133.352C337.809 133 338.47 132.824 339.217 132.824C339.953 132.824 340.571 132.979 341.073 133.288C341.574 133.597 341.958 134.04 342.225 134.616C342.491 135.181 342.625 135.853 342.625 136.632V137.112H336.401V136.296H341.777L341.505 136.504C341.505 135.651 341.313 134.984 340.929 134.504C340.545 134.024 339.974 133.784 339.217 133.784C338.417 133.784 337.793 134.067 337.345 134.632C336.897 135.187 336.673 135.939 336.673 136.888V137.032C336.673 138.035 336.918 138.797 337.409 139.32C337.91 139.832 338.609 140.088 339.505 140.088C339.985 140.088 340.433 140.019 340.849 139.88C341.275 139.731 341.681 139.491 342.065 139.16L342.513 140.072C342.161 140.413 341.713 140.68 341.169 140.872C340.635 141.053 340.07 141.144 339.473 141.144ZM344.608 141V134.824C344.608 134.525 344.592 134.221 344.56 133.912C344.538 133.592 344.512 133.277 344.48 132.968H345.728L345.888 134.728H345.696C345.93 134.109 346.304 133.64 346.816 133.32C347.338 132.989 347.941 132.824 348.624 132.824C349.573 132.824 350.288 133.08 350.768 133.592C351.258 134.093 351.504 134.888 351.504 135.976V141H350.208V136.056C350.208 135.299 350.053 134.749 349.744 134.408C349.445 134.056 348.976 133.88 348.336 133.88C347.589 133.88 346.997 134.109 346.56 134.568C346.122 135.027 345.904 135.64 345.904 136.408V141H344.608ZM357.023 141.144C356.319 141.144 355.7 140.979 355.167 140.648C354.633 140.307 354.217 139.827 353.919 139.208C353.631 138.589 353.487 137.848 353.487 136.984C353.487 136.109 353.631 135.363 353.919 134.744C354.217 134.125 354.633 133.651 355.167 133.32C355.7 132.989 356.319 132.824 357.023 132.824C357.748 132.824 358.372 133.005 358.895 133.368C359.428 133.731 359.785 134.221 359.967 134.84H359.775V129.224H361.071V141H359.791V139.08H359.967C359.796 139.72 359.444 140.227 358.911 140.6C358.377 140.963 357.748 141.144 357.023 141.144ZM357.295 140.088C358.052 140.088 358.66 139.827 359.119 139.304C359.577 138.771 359.807 137.997 359.807 136.984C359.807 135.96 359.577 135.187 359.119 134.664C358.66 134.131 358.052 133.864 357.295 133.864C356.537 133.864 355.929 134.131 355.471 134.664C355.023 135.187 354.799 135.96 354.799 136.984C354.799 137.997 355.023 138.771 355.471 139.304C355.929 139.827 356.537 140.088 357.295 140.088ZM367.145 141.144C365.886 141.144 364.894 140.781 364.169 140.056C363.443 139.32 363.081 138.301 363.081 137C363.081 136.157 363.241 135.427 363.561 134.808C363.881 134.179 364.329 133.693 364.905 133.352C365.481 133 366.142 132.824 366.889 132.824C367.625 132.824 368.243 132.979 368.745 133.288C369.246 133.597 369.63 134.04 369.897 134.616C370.163 135.181 370.297 135.853 370.297 136.632V137.112H364.073V136.296H369.449L369.177 136.504C369.177 135.651 368.985 134.984 368.601 134.504C368.217 134.024 367.646 133.784 366.889 133.784C366.089 133.784 365.465 134.067 365.017 134.632C364.569 135.187 364.345 135.939 364.345 136.888V137.032C364.345 138.035 364.59 138.797 365.081 139.32C365.582 139.832 366.281 140.088 367.177 140.088C367.657 140.088 368.105 140.019 368.521 139.88C368.947 139.731 369.353 139.491 369.737 139.16L370.185 140.072C369.833 140.413 369.385 140.68 368.841 140.872C368.307 141.053 367.742 141.144 367.145 141.144ZM375.32 141.144C374.616 141.144 373.997 140.979 373.464 140.648C372.93 140.307 372.514 139.827 372.216 139.208C371.928 138.589 371.784 137.848 371.784 136.984C371.784 136.109 371.928 135.363 372.216 134.744C372.514 134.125 372.93 133.651 373.464 133.32C373.997 132.989 374.616 132.824 375.32 132.824C376.045 132.824 376.669 133.005 377.192 133.368C377.725 133.731 378.082 134.221 378.264 134.84H378.072V129.224H379.368V141H378.088V139.08H378.264C378.093 139.72 377.741 140.227 377.208 140.6C376.674 140.963 376.045 141.144 375.32 141.144ZM375.592 140.088C376.349 140.088 376.957 139.827 377.416 139.304C377.874 138.771 378.104 137.997 378.104 136.984C378.104 135.96 377.874 135.187 377.416 134.664C376.957 134.131 376.349 133.864 375.592 133.864C374.834 133.864 374.226 134.131 373.768 134.664C373.32 135.187 373.096 135.96 373.096 136.984C373.096 137.997 373.32 138.771 373.768 139.304C374.226 139.827 374.834 140.088 375.592 140.088ZM381.617 141V139.368H383.249V141H381.617ZM389.846 141V129.72H390.998L395.526 139.944H395.062L399.59 129.72H400.742V141H399.526V131.432H400.006L395.734 141H394.854L390.566 131.432H391.046V141H389.846ZM406.476 141.144C405.762 141.144 405.138 140.979 404.604 140.648C404.071 140.307 403.655 139.827 403.356 139.208C403.068 138.589 402.924 137.848 402.924 136.984C402.924 136.109 403.068 135.363 403.356 134.744C403.655 134.125 404.071 133.651 404.604 133.32C405.138 132.989 405.762 132.824 406.476 132.824C407.202 132.824 407.826 133.011 408.348 133.384C408.882 133.747 409.234 134.243 409.404 134.872H409.212L409.388 132.968H410.636C410.604 133.277 410.572 133.592 410.54 133.912C410.519 134.221 410.508 134.525 410.508 134.824V141H409.212V139.112H409.388C409.218 139.741 408.866 140.237 408.332 140.6C407.799 140.963 407.18 141.144 406.476 141.144ZM406.732 140.088C407.5 140.088 408.108 139.827 408.556 139.304C409.004 138.771 409.228 137.997 409.228 136.984C409.228 135.96 409.004 135.187 408.556 134.664C408.108 134.131 407.5 133.864 406.732 133.864C405.975 133.864 405.367 134.131 404.908 134.664C404.46 135.187 404.236 135.96 404.236 136.984C404.236 137.997 404.46 138.771 404.908 139.304C405.367 139.827 405.975 140.088 406.732 140.088ZM411.926 141L415.526 136.536V137.176L412.118 132.968H413.686L416.262 136.248H415.798L418.358 132.968H419.91L416.55 137.16V136.568L420.118 141H418.534L415.782 137.496H416.262L413.478 141H411.926ZM426.516 141V139.864H429.172V130.856H429.876L426.772 132.792V131.464L429.54 129.72H430.5V139.864H432.996V141H426.516ZM438.878 141.144C437.598 141.144 436.617 140.648 435.934 139.656C435.251 138.664 434.91 137.229 434.91 135.352C434.91 133.464 435.251 132.029 435.934 131.048C436.617 130.067 437.598 129.576 438.878 129.576C440.169 129.576 441.15 130.067 441.822 131.048C442.505 132.029 442.846 133.459 442.846 135.336C442.846 137.224 442.505 138.664 441.822 139.656C441.139 140.648 440.158 141.144 438.878 141.144ZM438.878 139.992C439.774 139.992 440.441 139.613 440.878 138.856C441.315 138.099 441.534 136.925 441.534 135.336C441.534 133.736 441.315 132.568 440.878 131.832C440.441 131.085 439.774 130.712 438.878 130.712C437.993 130.712 437.326 131.085 436.878 131.832C436.441 132.579 436.222 133.747 436.222 135.336C436.222 136.925 436.441 138.099 436.878 138.856C437.326 139.613 437.993 139.992 438.878 139.992ZM445.096 141V129.72H446.248L450.776 139.944H450.312L454.84 129.72H455.992V141H454.776V131.432H455.256L450.984 141H450.104L445.816 131.432H446.296V141H445.096ZM458.814 141V129.72H463.326C464.521 129.72 465.444 129.976 466.094 130.488C466.745 131 467.07 131.725 467.07 132.664C467.07 133.368 466.857 133.955 466.43 134.424C466.014 134.893 465.433 135.203 464.686 135.352V135.128C465.518 135.224 466.169 135.512 466.638 135.992C467.118 136.461 467.358 137.096 467.358 137.896C467.358 138.899 467.022 139.667 466.35 140.2C465.689 140.733 464.75 141 463.534 141H458.814ZM460.11 139.928H463.406C464.217 139.928 464.857 139.773 465.326 139.464C465.806 139.144 466.046 138.616 466.046 137.88C466.046 137.133 465.806 136.605 465.326 136.296C464.857 135.976 464.217 135.816 463.406 135.816H460.11V139.928ZM460.11 134.76H463.134C464.009 134.76 464.665 134.589 465.102 134.248C465.54 133.907 465.758 133.416 465.758 132.776C465.758 132.115 465.54 131.619 465.102 131.288C464.665 130.947 464.009 130.776 463.134 130.776H460.11V134.76ZM477.285 141.144C476.026 141.144 475.034 140.781 474.309 140.056C473.584 139.32 473.221 138.301 473.221 137C473.221 136.157 473.381 135.427 473.701 134.808C474.021 134.179 474.469 133.693 475.045 133.352C475.621 133 476.282 132.824 477.029 132.824C477.765 132.824 478.384 132.979 478.885 133.288C479.386 133.597 479.77 134.04 480.037 134.616C480.304 135.181 480.437 135.853 480.437 136.632V137.112H474.213V136.296H479.589L479.317 136.504C479.317 135.651 479.125 134.984 478.741 134.504C478.357 134.024 477.786 133.784 477.029 133.784C476.229 133.784 475.605 134.067 475.157 134.632C474.709 135.187 474.485 135.939 474.485 136.888V137.032C474.485 138.035 474.73 138.797 475.221 139.32C475.722 139.832 476.421 140.088 477.317 140.088C477.797 140.088 478.245 140.019 478.661 139.88C479.088 139.731 479.493 139.491 479.877 139.16L480.325 140.072C479.973 140.413 479.525 140.68 478.981 140.872C478.448 141.053 477.882 141.144 477.285 141.144ZM485.476 141.144C484.762 141.144 484.138 140.979 483.604 140.648C483.071 140.307 482.655 139.827 482.356 139.208C482.068 138.589 481.924 137.848 481.924 136.984C481.924 136.109 482.068 135.363 482.356 134.744C482.655 134.125 483.071 133.651 483.604 133.32C484.138 132.989 484.762 132.824 485.476 132.824C486.202 132.824 486.826 133.011 487.348 133.384C487.882 133.747 488.234 134.243 488.404 134.872H488.212L488.388 132.968H489.636C489.604 133.277 489.572 133.592 489.54 133.912C489.519 134.221 489.508 134.525 489.508 134.824V141H488.212V139.112H488.388C488.218 139.741 487.866 140.237 487.332 140.6C486.799 140.963 486.18 141.144 485.476 141.144ZM485.732 140.088C486.5 140.088 487.108 139.827 487.556 139.304C488.004 138.771 488.228 137.997 488.228 136.984C488.228 135.96 488.004 135.187 487.556 134.664C487.108 134.131 486.5 133.864 485.732 133.864C484.975 133.864 484.367 134.131 483.908 134.664C483.46 135.187 483.236 135.96 483.236 136.984C483.236 137.997 483.46 138.771 483.908 139.304C484.367 139.827 484.975 140.088 485.732 140.088ZM495.39 141.144C494.601 141.144 493.913 140.973 493.326 140.632C492.75 140.291 492.302 139.805 491.982 139.176C491.673 138.547 491.518 137.8 491.518 136.936C491.518 136.061 491.678 135.32 491.998 134.712C492.318 134.093 492.766 133.624 493.342 133.304C493.929 132.984 494.611 132.824 495.39 132.824C495.902 132.824 496.398 132.915 496.878 133.096C497.369 133.277 497.774 133.533 498.094 133.864L497.63 134.792C497.31 134.483 496.958 134.253 496.574 134.104C496.201 133.955 495.833 133.88 495.47 133.88C494.638 133.88 493.993 134.141 493.534 134.664C493.075 135.187 492.846 135.949 492.846 136.952C492.846 137.944 493.075 138.712 493.534 139.256C493.993 139.8 494.638 140.072 495.47 140.072C495.822 140.072 496.185 140.003 496.558 139.864C496.942 139.725 497.299 139.496 497.63 139.176L498.094 140.088C497.763 140.429 497.353 140.691 496.862 140.872C496.371 141.053 495.881 141.144 495.39 141.144ZM499.936 141V129.224H501.232V134.744H501.024C501.248 134.115 501.621 133.64 502.144 133.32C502.677 132.989 503.291 132.824 503.984 132.824C504.944 132.824 505.659 133.085 506.128 133.608C506.597 134.12 506.832 134.899 506.832 135.944V141H505.536V136.024C505.536 135.277 505.387 134.733 505.088 134.392C504.8 134.051 504.331 133.88 503.68 133.88C502.933 133.88 502.336 134.109 501.888 134.568C501.451 135.027 501.232 135.629 501.232 136.376V141H499.936ZM515.787 143.88C515.349 143.08 514.987 142.296 514.699 141.528C514.411 140.771 514.197 140.003 514.059 139.224C513.931 138.445 513.867 137.635 513.867 136.792C513.867 135.949 513.931 135.139 514.059 134.36C514.197 133.581 514.411 132.813 514.699 132.056C514.987 131.288 515.349 130.509 515.787 129.72H516.875C516.331 130.915 515.915 132.099 515.627 133.272C515.349 134.435 515.211 135.608 515.211 136.792C515.211 137.965 515.349 139.144 515.627 140.328C515.915 141.501 516.331 142.685 516.875 143.88H515.787ZM518.689 141V140.008L522.689 135.832C523.211 135.288 523.601 134.771 523.857 134.28C524.123 133.779 524.257 133.261 524.257 132.728C524.257 132.077 524.054 131.587 523.649 131.256C523.243 130.915 522.657 130.744 521.889 130.744C521.291 130.744 520.737 130.851 520.225 131.064C519.723 131.267 519.238 131.592 518.769 132.04L518.289 131C518.715 130.573 519.259 130.232 519.921 129.976C520.582 129.709 521.281 129.576 522.016 129.576C523.158 129.576 524.038 129.843 524.657 130.376C525.275 130.899 525.585 131.645 525.585 132.616C525.585 133.331 525.409 134.013 525.057 134.664C524.715 135.304 524.214 135.965 523.553 136.648L520.017 140.232V139.864H526.065V141H518.689ZM531.706 141.144C530.426 141.144 529.445 140.648 528.762 139.656C528.08 138.664 527.738 137.229 527.738 135.352C527.738 133.464 528.08 132.029 528.762 131.048C529.445 130.067 530.426 129.576 531.706 129.576C532.997 129.576 533.978 130.067 534.65 131.048C535.333 132.029 535.674 133.459 535.674 135.336C535.674 137.224 535.333 138.664 534.65 139.656C533.968 140.648 532.986 141.144 531.706 141.144ZM531.706 139.992C532.602 139.992 533.269 139.613 533.706 138.856C534.144 138.099 534.362 136.925 534.362 135.336C534.362 133.736 534.144 132.568 533.706 131.832C533.269 131.085 532.602 130.712 531.706 130.712C530.821 130.712 530.154 131.085 529.706 131.832C529.269 132.579 529.05 133.747 529.05 135.336C529.05 136.925 529.269 138.099 529.706 138.856C530.154 139.613 530.821 139.992 531.706 139.992ZM537.924 141V129.72H539.076L543.604 139.944H543.14L547.668 129.72H548.82V141H547.604V131.432H548.084L543.812 141H542.932L538.644 131.432H539.124V141H537.924ZM551.642 141V129.72H556.154C557.349 129.72 558.272 129.976 558.922 130.488C559.573 131 559.898 131.725 559.898 132.664C559.898 133.368 559.685 133.955 559.258 134.424C558.842 134.893 558.261 135.203 557.514 135.352V135.128C558.346 135.224 558.997 135.512 559.466 135.992C559.946 136.461 560.186 137.096 560.186 137.896C560.186 138.899 559.85 139.667 559.178 140.2C558.517 140.733 557.578 141 556.362 141H551.642ZM552.938 139.928H556.234C557.045 139.928 557.685 139.773 558.154 139.464C558.634 139.144 558.874 138.616 558.874 137.88C558.874 137.133 558.634 136.605 558.154 136.296C557.685 135.976 557.045 135.816 556.234 135.816H552.938V139.928ZM552.938 134.76H555.962C556.837 134.76 557.493 134.589 557.93 134.248C558.368 133.907 558.586 133.416 558.586 132.776C558.586 132.115 558.368 131.619 557.93 131.288C557.493 130.947 556.837 130.776 555.962 130.776H552.938V134.76ZM566.961 141V133.976H565.393V132.968H567.313L566.961 133.304V131.96C566.961 131.053 567.191 130.36 567.649 129.88C568.108 129.4 568.764 129.16 569.617 129.16C569.831 129.16 570.049 129.181 570.273 129.224C570.508 129.256 570.7 129.304 570.849 129.368V130.44C570.721 130.387 570.561 130.344 570.369 130.312C570.188 130.269 570.001 130.248 569.809 130.248C569.479 130.248 569.196 130.317 568.961 130.456C568.727 130.584 568.551 130.781 568.433 131.048C568.316 131.315 568.257 131.656 568.257 132.072V133.24L568.049 132.968H570.497V133.976H568.257V141H566.961ZM575.029 141.144C574.261 141.144 573.589 140.979 573.013 140.648C572.447 140.307 572.01 139.827 571.701 139.208C571.391 138.579 571.237 137.837 571.237 136.984C571.237 136.12 571.391 135.379 571.701 134.76C572.01 134.141 572.447 133.667 573.013 133.336C573.589 132.995 574.261 132.824 575.029 132.824C575.807 132.824 576.479 132.995 577.045 133.336C577.621 133.667 578.063 134.141 578.373 134.76C578.693 135.379 578.853 136.12 578.853 136.984C578.853 137.837 578.693 138.579 578.373 139.208C578.063 139.827 577.621 140.307 577.045 140.648C576.479 140.979 575.807 141.144 575.029 141.144ZM575.029 140.088C575.797 140.088 576.405 139.827 576.853 139.304C577.301 138.771 577.525 137.997 577.525 136.984C577.525 135.96 577.295 135.187 576.837 134.664C576.389 134.131 575.786 133.864 575.029 133.864C574.271 133.864 573.669 134.131 573.221 134.664C572.773 135.187 572.549 135.96 572.549 136.984C572.549 137.997 572.773 138.771 573.221 139.304C573.669 139.827 574.271 140.088 575.029 140.088ZM580.841 141V134.904C580.841 134.584 580.831 134.259 580.809 133.928C580.799 133.597 580.777 133.277 580.745 132.968H581.993L582.153 134.92L581.929 134.936C582.036 134.456 582.223 134.061 582.489 133.752C582.756 133.443 583.071 133.213 583.433 133.064C583.796 132.904 584.175 132.824 584.569 132.824C584.729 132.824 584.868 132.829 584.985 132.84C585.113 132.851 585.231 132.877 585.337 132.92L585.321 134.072C585.161 134.019 585.012 133.987 584.873 133.976C584.745 133.955 584.596 133.944 584.425 133.944C583.956 133.944 583.545 134.056 583.193 134.28C582.852 134.504 582.591 134.792 582.409 135.144C582.239 135.496 582.153 135.869 582.153 136.264V141H580.841ZM593.226 141L589.786 132.968H591.194L594.074 140.04H593.642L596.554 132.968H597.898L594.458 141H593.226ZM599.358 141V132.968H600.654V141H599.358ZM599.198 131.144V129.688H600.798V131.144H599.198ZM606.21 141.144C605.506 141.144 604.888 140.979 604.354 140.648C603.821 140.307 603.405 139.827 603.106 139.208C602.818 138.589 602.674 137.848 602.674 136.984C602.674 136.109 602.818 135.363 603.106 134.744C603.405 134.125 603.821 133.651 604.354 133.32C604.888 132.989 605.506 132.824 606.21 132.824C606.936 132.824 607.56 133.005 608.082 133.368C608.616 133.731 608.973 134.221 609.154 134.84H608.962V129.224H610.258V141H608.978V139.08H609.154C608.984 139.72 608.632 140.227 608.098 140.6C607.565 140.963 606.936 141.144 606.21 141.144ZM606.482 140.088C607.24 140.088 607.848 139.827 608.306 139.304C608.765 138.771 608.994 137.997 608.994 136.984C608.994 135.96 608.765 135.187 608.306 134.664C607.848 134.131 607.24 133.864 606.482 133.864C605.725 133.864 605.117 134.131 604.658 134.664C604.21 135.187 603.986 135.96 603.986 136.984C603.986 137.997 604.21 138.771 604.658 139.304C605.117 139.827 605.725 140.088 606.482 140.088ZM616.332 141.144C615.073 141.144 614.081 140.781 613.356 140.056C612.631 139.32 612.268 138.301 612.268 137C612.268 136.157 612.428 135.427 612.748 134.808C613.068 134.179 613.516 133.693 614.092 133.352C614.668 133 615.329 132.824 616.076 132.824C616.812 132.824 617.431 132.979 617.932 133.288C618.433 133.597 618.817 134.04 619.084 134.616C619.351 135.181 619.484 135.853 619.484 136.632V137.112H613.26V136.296H618.636L618.364 136.504C618.364 135.651 618.172 134.984 617.788 134.504C617.404 134.024 616.833 133.784 616.076 133.784C615.276 133.784 614.652 134.067 614.204 134.632C613.756 135.187 613.532 135.939 613.532 136.888V137.032C613.532 138.035 613.777 138.797 614.268 139.32C614.769 139.832 615.468 140.088 616.364 140.088C616.844 140.088 617.292 140.019 617.708 139.88C618.135 139.731 618.54 139.491 618.924 139.16L619.372 140.072C619.02 140.413 618.572 140.68 618.028 140.872C617.495 141.053 616.929 141.144 616.332 141.144ZM624.763 141.144C623.995 141.144 623.323 140.979 622.747 140.648C622.182 140.307 621.744 139.827 621.435 139.208C621.126 138.579 620.971 137.837 620.971 136.984C620.971 136.12 621.126 135.379 621.435 134.76C621.744 134.141 622.182 133.667 622.747 133.336C623.323 132.995 623.995 132.824 624.763 132.824C625.542 132.824 626.214 132.995 626.779 133.336C627.355 133.667 627.798 134.141 628.107 134.76C628.427 135.379 628.587 136.12 628.587 136.984C628.587 137.837 628.427 138.579 628.107 139.208C627.798 139.827 627.355 140.307 626.779 140.648C626.214 140.979 625.542 141.144 624.763 141.144ZM624.763 140.088C625.531 140.088 626.139 139.827 626.587 139.304C627.035 138.771 627.259 137.997 627.259 136.984C627.259 135.96 627.03 135.187 626.571 134.664C626.123 134.131 625.52 133.864 624.763 133.864C624.006 133.864 623.403 134.131 622.955 134.664C622.507 135.187 622.283 135.96 622.283 136.984C622.283 137.997 622.507 138.771 622.955 139.304C623.403 139.827 624.006 140.088 624.763 140.088ZM633.28 141.144C632.64 141.144 632.042 141.059 631.488 140.888C630.933 140.707 630.474 140.456 630.112 140.136L630.56 139.224C630.954 139.533 631.381 139.763 631.84 139.912C632.309 140.061 632.794 140.136 633.296 140.136C633.936 140.136 634.416 140.024 634.736 139.8C635.066 139.565 635.232 139.245 635.232 138.84C635.232 138.531 635.125 138.285 634.912 138.104C634.709 137.912 634.373 137.763 633.904 137.656L632.416 137.352C631.733 137.203 631.221 136.952 630.88 136.6C630.538 136.237 630.368 135.779 630.368 135.224C630.368 134.755 630.49 134.344 630.736 133.992C630.981 133.629 631.338 133.347 631.808 133.144C632.277 132.931 632.826 132.824 633.456 132.824C634.042 132.824 634.581 132.915 635.072 133.096C635.573 133.267 635.989 133.517 636.32 133.848L635.856 134.744C635.536 134.435 635.168 134.205 634.752 134.056C634.346 133.896 633.925 133.816 633.488 133.816C632.858 133.816 632.384 133.944 632.064 134.2C631.754 134.445 631.6 134.771 631.6 135.176C631.6 135.485 631.696 135.741 631.888 135.944C632.09 136.136 632.4 136.28 632.816 136.376L634.304 136.68C635.029 136.84 635.568 137.091 635.92 137.432C636.282 137.763 636.464 138.211 636.464 138.776C636.464 139.256 636.33 139.677 636.064 140.04C635.797 140.392 635.424 140.664 634.944 140.856C634.474 141.048 633.92 141.144 633.28 141.144ZM638.785 143.88H637.713C638.257 142.685 638.668 141.501 638.945 140.328C639.233 139.155 639.377 137.981 639.377 136.808C639.377 135.624 639.233 134.445 638.945 133.272C638.668 132.099 638.257 130.915 637.713 129.72H638.785C639.244 130.509 639.612 131.288 639.889 132.056C640.177 132.813 640.385 133.587 640.513 134.376C640.652 135.155 640.721 135.965 640.721 136.808C640.721 137.64 640.652 138.451 640.513 139.24C640.385 140.019 640.177 140.787 639.889 141.544C639.612 142.312 639.244 143.091 638.785 143.88Z" fill="#9AA0A6"/>
</svg>
